# xmcd CD database file
#
# Track frame offsets:
#	150
#	26550
#	48826
#	84736
#
# Disc length: 1557 seconds
#
# Revision: 9
# Processed by: cddbd v1.5.2PL0 Copyright (c) Steve Scherf et al.
# Submitted via: jetAudio 7
#
DISCID=27061304
DTITLE=Key Sounds Label - Ma-Na
DYEAR=2005
DGENRE=Game
TTITLE0=朝影
TTITLE1=夏影
TTITLE2=Gentle Jena
TTITLE3=渚
EXTD=YEAR: 2005
EXTT0=
EXTT1=
EXTT2=
EXTT3=
PLAYORDER=
